<svg width="18" height="18" viewBox="0 0 18 18" fill="none" xmlns="http://www.w3.org/2000/svg">
<path d="M14.3112 15.6408L14.8309 4.62704H15.584C15.8929 4.62704 16.1417 4.37086 16.1417 4.06197C16.1417 3.75308 15.8929 3.48919 15.584 3.48919H12.292V2.35936C12.292 1.28194 11.5614 0.581543 10.4013 0.581543H7.58368C6.42333 0.581543 5.70011 1.28226 5.70011 2.35904V3.48919H2.42347C2.12229 3.48919 1.8584 3.75276 1.8584 4.06197C1.8584 4.37054 2.12197 4.62704 2.42347 4.62704H3.1769L3.69633 15.6485C3.74904 16.7333 4.46454 17.4186 5.54968 17.4186H12.4578C13.5349 17.4186 14.2581 16.7256 14.3109 15.6411M6.90547 2.43458C6.90547 2.00515 7.22208 1.70397 7.67401 1.70397H10.3184C10.778 1.70397 11.0943 2.00515 11.0943 2.43458V3.48919H6.90547V2.43458ZM5.66251 16.2888C5.22536 16.2888 4.90168 15.9571 4.87918 15.5206L4.35204 4.62704H13.6253L13.1283 15.5203C13.1058 15.9648 12.7892 16.2885 12.3447 16.2885L5.66251 16.2888ZM11.2374 14.9629C11.4858 14.9629 11.6745 14.7594 11.6819 14.473L11.9079 6.51769C11.9153 6.23161 11.7195 6.02044 11.4633 6.02044C11.23 6.02044 11.0339 6.23901 11.0262 6.51029L10.8005 14.473C10.7928 14.7443 10.9812 14.9629 11.2374 14.9629ZM6.77015 14.9629C7.02633 14.9629 7.21436 14.7443 7.20697 14.473L6.98101 6.51029C6.97329 6.23901 6.77015 6.02044 6.53647 6.02044C6.28029 6.02044 6.09193 6.23161 6.09933 6.51769L6.33301 14.473C6.34072 14.7594 6.52136 14.9629 6.77015 14.9629ZM9.45954 14.473V6.51029C9.45954 6.23901 9.25608 6.02044 9.00729 6.02044C8.75883 6.02044 8.54765 6.23901 8.54765 6.51029V14.473C8.54765 14.7443 8.75883 14.9629 9.00729 14.9629C9.24836 14.9629 9.45954 14.7443 9.45954 14.473Z" fill="black"/>
</svg>
